# xmcd
#
# Track frame offsets: 
#        150
#        18548
#        28830
#        40509
#        53652
#        65586
#        76789
#        89889
#        102092
#        113793
#        123275
#        130933
#        143948
#        155110
#        167205
#
# Disc length: 2343 seconds
#
# Revision: 0
# Processed by: cddbd v1.5.2PL0 Copyright (c) Steve Scherf et al.
# Submitted via: ExactAudioCopyFreeDBPlugin 1.0
#
DISCID=cb09250f
DTITLE=Dale Watson - Truckin' Sessions Vol. 3
DYEAR=2015
DGENRE=Country
TTITLE0=It's Been a Long Truckin Day
TTITLE1=Suicide Sam
TTITLE2=Phillip at the Station
TTITLE3=Freewheelin
TTITLE4=I Live on Truckin' Time
TTITLE5=I Gotta Keep on Keeping on
TTITLE6=Texas Armadillo
TTITLE7=Birmingham Breakdown
TTITLE8=I'm a Truckin
TTITLE9=Drive Drive Drive
TTITLE10=Big T
TTITLE11=Lugnut Larry
TTITLE12=Kitty Liang
TTITLE13=We're Truckin Along
TTITLE14=10-100
EXTD=
EXTT0=
EXTT1=
EXTT2=
EXTT3=
EXTT4=
EXTT5=
EXTT6=
EXTT7=
EXTT8=
EXTT9=
EXTT10=
EXTT11=
EXTT12=
EXTT13=
EXTT14=
PLAYORDER=
